<svg xmlns="http://www.w3.org/2000/svg" width="192" height="38" viewBox="0 0 192 38">
  <path fill="#FFF" fill-rule="evenodd" d="M13.836,9.084 C21.504,9.516 23.196,15.6 23.196,19.02 C23.196,23.772 20.46,28.992 13.116,28.992 C7.824,28.992 3,25.968 3,19.02 C3,13.26 6.636,8.688 13.836,9.084 Z M12.792,13.476 C11.208,13.584 10.272,14.124 9.516,15.312 C8.832,16.392 8.58,17.688 8.58,18.984 C8.58,21.972 10.02,24.6 13.116,24.6 C16.104,24.6 17.58,22.188 17.58,19.236 C17.58,17.148 17.076,15.528 16.032,14.52 C14.88,13.44 13.584,13.404 12.792,13.476 Z M29.584,9.732 L29.584,11.496 C29.764,11.28 29.944,11.064 30.124,10.884 C31.06,9.984 32.752,9.228 34.84,9.228 C39.448,9.228 43.012,12.72 43.012,18.984 C43.012,22.836 41.32,28.812 34.876,28.812 C32.788,28.812 31.708,28.128 30.232,27.228 L30.232,34.968 L24.652,34.968 L24.652,9.732 L29.584,9.732 Z M34.732,13.26 C34.48,13.188 34.228,13.152 33.976,13.152 C32.968,13.152 31.924,13.584 31.132,14.664 C30.34,15.708 29.98,17.328 29.98,19.092 C29.98,21.468 30.592,22.944 31.312,23.736 C31.96,24.42 32.896,24.816 33.796,24.816 C36.496,24.816 37.684,21.9 37.684,18.948 C37.684,16.464 37,13.836 34.732,13.26 Z M57.932,21.54 L62.108,23.664 C61.46,24.636 60.812,25.572 59.84,26.472 C58.22,27.984 55.772,29.136 52.748,29.136 C47.168,29.136 43.244,25.572 43.244,19.416 C43.244,14.88 45.476,9.048 52.892,9.048 C54.008,9.048 57.248,9.156 59.66,11.748 C62.108,14.376 62.252,18.048 62.324,20.172 L48.896,20.172 C48.86,22.512 50.192,24.852 53.18,24.852 C56.204,24.852 57.248,22.872 57.932,21.54 Z M48.932,16.716 L56.6,16.716 C56.492,15.924 56.348,14.88 55.556,14.052 C54.872,13.368 53.828,13.008 52.856,13.008 C51.524,13.008 50.588,13.656 50.048,14.232 C49.292,15.06 49.112,15.924 48.932,16.716 Z M69.18,9.696 L69.18,11.352 C69.72,10.776 70.08,10.344 71.052,9.876 C71.916,9.516 73.14,9.192 74.472,9.192 C75.588,9.192 76.848,9.408 77.82,9.948 C79.8,10.992 80.304,12.684 80.304,15.6 L80.304,28.452 L74.796,28.452 L74.796,17.868 C74.796,16.176 74.76,15.564 74.544,15.06 C74.112,14.052 73.14,13.62 72.06,13.62 C69.144,13.62 69.144,15.96 69.144,18.3 L69.144,28.452 L63.6,28.452 L63.6,9.696 L69.18,9.696 Z M88.708,9.696 L88.708,11.64 C89.356,10.884 90.796,9.192 94.036,9.192 C97.132,9.192 98.248,10.344 99.256,11.388 C100.336,10.488 101.848,9.192 104.836,9.192 C107.932,9.192 109.516,10.74 110.092,11.892 C110.56,12.9 110.596,14.196 110.596,16.212 L110.596,28.452 L105.124,28.452 L105.124,18.588 C105.124,17.508 105.124,16.104 104.908,15.384 C104.404,13.8 102.928,13.692 102.496,13.692 C101.956,13.692 101.236,13.836 100.696,14.268 C99.652,15.096 99.652,16.176 99.652,18.228 L99.652,28.452 L94.18,28.452 L94.18,17.328 C94.18,16.5 94.144,15.384 93.64,14.664 C93.208,14.088 92.38,13.692 91.48,13.692 C91.048,13.692 90.472,13.8 89.968,14.124 C88.744,14.952 88.708,16.464 88.708,17.76 L88.708,28.452 L83.236,28.452 L83.236,9.696 L88.708,9.696 Z M123.068,9.084 C130.736,9.516 132.428,15.6 132.428,19.02 C132.428,23.772 129.692,28.992 122.348,28.992 C117.056,28.992 112.232,25.968 112.232,19.02 C112.232,13.26 115.868,8.688 123.068,9.084 Z M122.024,13.476 C120.44,13.584 119.504,14.124 118.748,15.312 C118.064,16.392 117.812,17.688 117.812,18.984 C117.812,21.972 119.252,24.6 122.348,24.6 C125.336,24.6 126.812,22.188 126.812,19.236 C126.812,17.148 126.308,15.528 125.264,14.52 C124.112,13.44 122.816,13.404 122.024,13.476 Z M134.064,3 L139.464,3 L139.464,11.352 C140.256,10.524 141.66,9.084 144.864,9.084 C147.888,9.084 152.856,11.172 152.856,18.66 C152.856,20.568 152.532,22.8 151.704,24.456 C150.732,26.58 148.428,28.956 144.684,28.956 C141.372,28.956 139.86,27.228 139.176,26.472 L139.392,28.452 L134.064,28.452 L134.064,3 Z M143.388,13.152 C139.356,13.368 139.32,17.76 139.32,18.876 C139.32,20.244 139.536,21.972 140.184,23.088 C140.904,24.24 142.2,24.852 143.46,24.852 C144.936,24.852 145.872,24.024 146.34,23.448 C147.348,22.116 147.456,19.668 147.456,18.84 C147.456,15.852 146.52,12.972 143.388,13.152 Z M154.6,7.284 L154.6,3 L160.072,3 L160.072,7.284 L154.6,7.284 Z M154.6,28.452 L154.6,9.624 L160.072,9.624 L160.072,28.452 L154.6,28.452 Z M163.04,3.036 L168.584,3.036 L168.584,28.452 L163.04,28.452 L163.04,3.036 Z M184.944,21.54 L189.12,23.664 C188.472,24.636 187.824,25.572 186.852,26.472 C185.232,27.984 182.784,29.136 179.76,29.136 C174.18,29.136 170.256,25.572 170.256,19.416 C170.256,14.88 172.488,9.048 179.904,9.048 C181.02,9.048 184.26,9.156 186.672,11.748 C189.12,14.376 189.264,18.048 189.336,20.172 L175.908,20.172 C175.872,22.512 177.204,24.852 180.192,24.852 C183.216,24.852 184.26,22.872 184.944,21.54 Z M175.944,16.716 L183.612,16.716 C183.504,15.924 183.36,14.88 182.568,14.052 C181.884,13.368 180.84,13.008 179.868,13.008 C178.536,13.008 177.6,13.656 177.06,14.232 C176.304,15.06 176.124,15.924 175.944,16.716 Z"/>
</svg>
